<svg width="16" height="16" viewBox="0 0 16 16" fill="none" xmlns="http://www.w3.org/2000/svg">
<path d="M7.31656 13.3094C7.63435 13.1176 8.03224 13.1176 8.35003 13.3094L11.4693 15.192C12.2266 15.6491 13.1608 14.9701 12.9599 14.1087L12.1321 10.5603C12.0478 10.1988 12.1706 9.82034 12.4512 9.57729L15.212 7.18557C15.8801 6.60679 15.5238 5.50938 14.6432 5.43344L11.0086 5.12003C10.6398 5.08822 10.3187 4.85524 10.174 4.51445L8.7538 1.16859C8.40897 0.356231 7.25761 0.356232 6.91279 1.16859L5.49256 4.51445C5.34791 4.85524 5.02682 5.08822 4.65797 5.12003L1.02045 5.43369C0.140226 5.5096 -0.216334 6.60613 0.450909 7.18523L3.20778 9.57788C3.48751 9.82066 3.61013 10.1982 3.52647 10.559L2.70258 14.1123C2.50293 14.9734 3.43671 15.6511 4.19348 15.1943L7.31656 13.3094Z" fill="#FFD705"/>
</svg>
