<svg width="16" height="14" viewBox="0 0 16 14" fill="none" xmlns="http://www.w3.org/2000/svg">
<path d="M3.83333 1.16667H15.5V2.83333H3.83333V1.16667ZM3.83333 7.83333V6.16667H15.5V7.83333H3.83333ZM1.33333 0.75C1.66485 0.75 1.98279 0.881696 2.21721 1.11612C2.45163 1.35054 2.58333 1.66848 2.58333 2C2.58333 2.33152 2.45163 2.64946 2.21721 2.88388C1.98279 3.1183 1.66485 3.25 1.33333 3.25C1.00181 3.25 0.683865 3.1183 0.449445 2.88388C0.215024 2.64946 0.0833282 2.33152 0.0833282 2C0.0833282 1.66848 0.215024 1.35054 0.449445 1.11612C0.683865 0.881696 1.00181 0.75 1.33333 0.75ZM1.33333 5.75C1.66485 5.75 1.98279 5.8817 2.21721 6.11612C2.45163 6.35054 2.58333 6.66848 2.58333 7C2.58333 7.33152 2.45163 7.64946 2.21721 7.88388C1.98279 8.1183 1.66485 8.25 1.33333 8.25C1.00181 8.25 0.683865 8.1183 0.449445 7.88388C0.215024 7.64946 0.0833282 7.33152 0.0833282 7C0.0833282 6.66848 0.215024 6.35054 0.449445 6.11612C0.683865 5.8817 1.00181 5.75 1.33333 5.75ZM3.83333 12.8333V11.1667H15.5V12.8333H3.83333ZM1.33333 10.75C1.66485 10.75 1.98279 10.8817 2.21721 11.1161C2.45163 11.3505 2.58333 11.6685 2.58333 12C2.58333 12.3315 2.45163 12.6495 2.21721 12.8839C1.98279 13.1183 1.66485 13.25 1.33333 13.25C1.00181 13.25 0.683865 13.1183 0.449445 12.8839C0.215024 12.6495 0.0833282 12.3315 0.0833282 12C0.0833282 11.6685 0.215024 11.3505 0.449445 11.1161C0.683865 10.8817 1.00181 10.75 1.33333 10.75Z" fill="#2C2C2C"/>
</svg>
