<svg width="41" height="33" viewBox="0 0 41 33" fill="none" xmlns="http://www.w3.org/2000/svg">
<path d="M40.1125 4.25C38.6688 4.90625 37.1125 5.3375 35.5 5.54375C37.15 4.55 38.425 2.975 39.025 1.08125C37.4688 2.01875 35.7438 2.675 33.925 3.05C32.4438 1.4375 30.3625 0.5 28 0.5C23.5938 0.5 19.9938 4.1 19.9938 8.54375C19.9938 9.18125 20.0688 9.8 20.2 10.3813C13.525 10.0438 7.58126 6.8375 3.62501 1.98125C2.93126 3.1625 2.53751 4.55 2.53751 6.0125C2.53751 8.80625 3.94376 11.2812 6.11876 12.6875C4.78751 12.6875 3.55001 12.3125 2.46251 11.75C2.46251 11.75 2.46251 11.75 2.46251 11.8062C2.46251 15.7062 5.23751 18.9688 8.91251 19.7C8.23751 19.8875 7.52501 19.9813 6.79376 19.9813C6.28751 19.9813 5.78126 19.925 5.29376 19.8313C6.30626 23 9.25001 25.3625 12.7938 25.4188C10.0563 27.5938 6.58751 28.8687 2.80001 28.8687C2.16251 28.8687 1.52501 28.8312 0.887512 28.7562C4.45001 31.0437 8.68751 32.375 13.225 32.375C28 32.375 36.1188 20.1125 36.1188 9.48125C36.1188 9.125 36.1188 8.7875 36.1 8.43125C37.675 7.30625 39.025 5.88125 40.1125 4.25Z" fill="#7C7C7C"/>
</svg>
