<svg width="16" height="16" viewBox="0 0 16 16" fill="none" xmlns="http://www.w3.org/2000/svg">
<path d="M7.48327 13.1426C7.80107 12.9508 8.19895 12.9508 8.51674 13.1426L11.636 15.0253C12.3933 15.4824 13.3276 14.8034 13.1266 13.942L12.2988 10.3936C12.2145 10.0321 12.3373 9.65359 12.6179 9.41054L15.3787 7.01882C16.0468 6.44005 15.6905 5.34263 14.8099 5.26669L11.1753 4.95328C10.8065 4.92147 10.4854 4.68849 10.3407 4.3477L8.92052 1.00184C8.57569 0.189483 7.42433 0.189484 7.0795 1.00185L5.65928 4.34771C5.51463 4.68849 5.19353 4.92147 4.82469 4.95328L1.18717 5.26695C0.306943 5.34285 -0.0496162 6.43939 0.617627 7.01848L3.37449 9.41114C3.65422 9.65391 3.77685 10.0314 3.69319 10.3922L2.8693 13.9456C2.66965 14.8067 3.60343 15.4844 4.36019 15.0276L7.48327 13.1426Z" fill="#FFD705"/>
</svg>
